<?xml version="1.0" encoding="utf-8"?>
<!-- Generator: Adobe Illustrator 24.3.0, SVG Export Plug-In . SVG Version: 6.00 Build 0)  -->
<svg version="1.1" id="Layer_1" xmlns="http://www.w3.org/2000/svg" xmlns:xlink="http://www.w3.org/1999/xlink" x="0px" y="0px"
	 viewBox="0 0 1024 768" style="enable-background:new 0 0 1024 768;" xml:space="preserve">
<style type="text/css">
	.st0{fill:url(#SVGID_1_);}
</style>
<linearGradient id="SVGID_1_" gradientUnits="userSpaceOnUse" x1="512.4049" y1="452.3795" x2="512.4049" y2="313.8422">
	<stop  offset="0" style="stop-color:#EDEA86"/>
	<stop  offset="1" style="stop-color:#FEBA5C"/>
</linearGradient>
<path class="st0" d="M493.8,314.2l41.7,17.5c1.4,0.6,2.3,1.9,2.4,3.4l3.6,51.8c0.3,4.1-5,5.9-7.3,2.5l0,0c-2.4-3.6-8-1.4-7.2,2.8
	l9.4,55.6c0.8,4.5-5.5,6.5-7.5,2.4l-45.3-95.3c-1.6-3.3,1.8-6.8,5.1-5.4l6.7,2.8c3.3,1.4,6.6-2,5.2-5.2l-12-27.6
	C487.2,316.1,490.5,312.8,493.8,314.2z"/>
</svg>
