<?xml version="1.0" encoding="utf-8"?>
<!-- Generator: Adobe Illustrator 24.3.0, SVG Export Plug-In . SVG Version: 6.00 Build 0)  -->
<svg version="1.1" id="Layer_1" xmlns="http://www.w3.org/2000/svg" xmlns:xlink="http://www.w3.org/1999/xlink" x="0px" y="0px"
	 viewBox="0 0 1024 768" style="enable-background:new 0 0 1024 768;" xml:space="preserve">
<style type="text/css">
	.st0{fill:url(#SVGID_1_);}
</style>
<linearGradient id="SVGID_1_" gradientUnits="userSpaceOnUse" x1="512.0245" y1="451.4848" x2="512.0245" y2="315.0677">
	<stop  offset="0" style="stop-color:#EDEA86"/>
	<stop  offset="1" style="stop-color:#FEBA5C"/>
</linearGradient>
<path class="st0" d="M503.8,315.5l25.9,14.2c0.8,0.4,1.4,1.2,1.6,2.1l9.5,45.8c0.2,1.2-0.2,2.4-1.2,3.1l-24.7,18.4
	c-1.1,0.8-1.5,2.2-1.1,3.5l6.7,19.4c0.4,1.2,0.1,2.6-0.9,3.4l-29.9,25.3c-2.6,2.2-6.3-0.7-4.8-3.7l11.5-24.2c0.4-0.9,0.4-1.9,0-2.7
	l-12.6-24.9c-0.7-1.3-0.3-2.9,0.8-3.8l25.8-21.7c0.9-0.8,1.3-2,1-3.1l-11.9-47.5C498.6,316.3,501.4,314.2,503.8,315.5z"/>
</svg>
