<?xml version="1.0" encoding="utf-8"?>
<!-- Generator: Adobe Illustrator 24.3.0, SVG Export Plug-In . SVG Version: 6.00 Build 0)  -->
<svg version="1.1" id="Layer_1" xmlns="http://www.w3.org/2000/svg" xmlns:xlink="http://www.w3.org/1999/xlink" x="0px" y="0px"
	 viewBox="0 0 1024 768" style="enable-background:new 0 0 1024 768;" xml:space="preserve">
<style type="text/css">
	.st0{fill:url(#SVGID_1_);}
</style>
<linearGradient id="SVGID_1_" gradientUnits="userSpaceOnUse" x1="511.9406" y1="445.134" x2="511.9406" y2="320.4224">
	<stop  offset="0" style="stop-color:#EDEA86"/>
	<stop  offset="1" style="stop-color:#FEBA5C"/>
</linearGradient>
<path class="st0" d="M515.3,320.5l22.4,5.5c2.5,0.6,3.5,3.7,1.8,5.7L511.7,364c-1.6,1.8-0.9,4.7,1.3,5.6l28.1,11.4
	c2.3,0.9,2.9,3.8,1.3,5.6L515,416.5c-1.5,1.6-1.1,4.2,0.8,5.4l15.5,9.5c1.8,1.1,2.2,3.6,0.9,5.3l-6.1,7.2c-2.6,3-7.4,0.2-6-3.5l0,0
	c0.7-1.7-0.1-3.6-1.7-4.4l-25.4-12.3c-2.1-1-2.6-3.7-1.1-5.5l21.7-25.2c1.7-2,0.7-5.1-1.9-5.7l-28.3-6.7c-2.3-0.5-3.4-3.1-2.2-5.2
	l30.3-53.1C512.2,320.8,513.8,320.1,515.3,320.5z"/>
</svg>
