<?xml version="1.0" encoding="utf-8"?>
<!-- Generator: Adobe Illustrator 24.3.0, SVG Export Plug-In . SVG Version: 6.00 Build 0)  -->
<svg version="1.1" id="Layer_1" xmlns="http://www.w3.org/2000/svg" xmlns:xlink="http://www.w3.org/1999/xlink" x="0px" y="0px"
	 viewBox="0 0 1024 768" style="enable-background:new 0 0 1024 768;" xml:space="preserve">
<style type="text/css">
	.st0{fill-rule:evenodd;clip-rule:evenodd;fill:url(#SVGID_1_);}
	.st1{fill-rule:evenodd;clip-rule:evenodd;fill:url(#SVGID_2_);}
	.st2{fill-rule:evenodd;clip-rule:evenodd;fill:url(#SVGID_3_);}
	.st3{fill-rule:evenodd;clip-rule:evenodd;fill:url(#SVGID_4_);}
	.st4{fill-rule:evenodd;clip-rule:evenodd;fill:#EDFAFF;}
	.st5{fill-rule:evenodd;clip-rule:evenodd;fill:url(#SVGID_5_);}
	.st6{fill-rule:evenodd;clip-rule:evenodd;fill:url(#SVGID_6_);}
	.st7{opacity:0.5;fill-rule:evenodd;clip-rule:evenodd;fill:url(#SVGID_7_);}
</style>
<g>
	
		<radialGradient id="SVGID_1_" cx="757.9092" cy="161.0333" r="114.6515" gradientTransform="matrix(0.9514 -0.3078 0.3078 0.9514 -103.6334 419.3628)" gradientUnits="userSpaceOnUse">
		<stop  offset="0.61" style="stop-color:#EDFBFF"/>
		<stop  offset="0.9832" style="stop-color:#8FBEEC"/>
	</radialGradient>
	<circle class="st0" cx="684.3" cy="390.8" r="52.8"/>
	
		<radialGradient id="SVGID_2_" cx="336.0022" cy="867.2477" r="115.1976" gradientTransform="matrix(0.9571 0.2899 -0.2899 0.9571 326.73 -560.6517)" gradientUnits="userSpaceOnUse">
		<stop  offset="0.61" style="stop-color:#EDFBFF"/>
		<stop  offset="0.9832" style="stop-color:#8FBEEC"/>
	</radialGradient>
	<circle class="st1" cx="381.7" cy="419.2" r="53"/>
	
		<radialGradient id="SVGID_3_" cx="592.3458" cy="351.758" r="135.6517" fx="583.3615" fy="351.9688" gradientTransform="matrix(1.042 -5.625512e-02 5.625510e-02 1.042 -86.3405 50.5985)" gradientUnits="userSpaceOnUse">
		<stop  offset="0.6907" style="stop-color:#EDFBFF"/>
		<stop  offset="0.8631" style="stop-color:#8FBEEC"/>
	</radialGradient>
	<circle class="st2" cx="554.9" cy="449.8" r="64.3"/>
	
		<radialGradient id="SVGID_4_" cx="525.9069" cy="482.7344" r="167.6398" fx="509.5499" fy="492.108" gradientTransform="matrix(0.9409 0.3386 -0.3386 0.9409 153.6046 -269.5883)" gradientUnits="userSpaceOnUse">
		<stop  offset="0.6618" style="stop-color:#EDFBFF"/>
		<stop  offset="0.8494" style="stop-color:#8FBEEC"/>
		<stop  offset="0.8523" style="stop-color:#90BFEC"/>
		<stop  offset="0.9488" style="stop-color:#B5D6F9"/>
		<stop  offset="1" style="stop-color:#C3DFFE"/>
	</radialGradient>
	<circle class="st3" cx="458.9" cy="437.8" r="77.2"/>
	<circle class="st4" cx="444.2" cy="350.6" r="58.8"/>
	<circle class="st4" cx="574.5" cy="356.2" r="70"/>
	
		<radialGradient id="SVGID_5_" cx="1047.1268" cy="-241.6472" r="135.9354" gradientTransform="matrix(0.8058 -0.5922 0.5922 0.8058 -118.9757 1201.0746)" gradientUnits="userSpaceOnUse">
		<stop  offset="0.61" style="stop-color:#EDFBFF"/>
		<stop  offset="0.9832" style="stop-color:#8FBEEC"/>
	</radialGradient>
	<circle class="st5" cx="620.4" cy="437.8" r="62.6"/>
	<circle class="st4" cx="511" cy="324.3" r="82.1"/>
	
		<radialGradient id="SVGID_6_" cx="279.5868" cy="900.1461" r="81.9441" gradientTransform="matrix(0.9571 0.2899 -0.2899 0.9571 326.73 -560.6517)" gradientUnits="userSpaceOnUse">
		<stop  offset="0.61" style="stop-color:#EDFBFF"/>
		<stop  offset="0.9832" style="stop-color:#8FBEEC"/>
	</radialGradient>
	<circle class="st6" cx="322.5" cy="419.2" r="37.7"/>
	<linearGradient id="SVGID_7_" gradientUnits="userSpaceOnUse" x1="510.9633" y1="242.2238" x2="510.9633" y2="514.9648">
		<stop  offset="0" style="stop-color:#EDFBFF"/>
		<stop  offset="0.8631" style="stop-color:#8FBEEC"/>
	</linearGradient>
	<path class="st7" d="M734.5,374.6c-9-27.7-38.7-42.9-66.5-34c-9.5,3.1-17.5,8.6-23.6,15.6c0-35.4-26.3-64.6-60.4-69.3
		c-13.6-26.5-41.2-44.7-73-44.7c-34,0-63.2,20.7-75.7,50.3c-28.2,4.3-49.9,28.7-49.9,58.1c0,5.5,0.8,10.8,2.2,15.9
		c-18.2-2.1-36.1,5.5-47.3,19.4c-2.2-1.2-4.5-2.1-6.9-2.8c-19.9-6-41,5.2-47,25.2c-6,19.9,5.2,41,25.2,47c10,3,20.2,1.7,28.7-2.9
		c6.5,8,15.3,14.3,25.9,17.5c7.8,2.4,15.7,2.8,23.2,1.7c8.5,17.4,23.5,31.7,43.2,38.7c27.4,9.9,56.8,3.3,77.2-14.7
		c12.4,12.2,29.7,19.3,48.5,18.3c15.8-0.9,29.9-7.3,40.6-17.4c19,6.9,41,4.5,58.5-8.4c15-11,23.6-27.5,25.2-44.6
		c5.9,0.2,11.9-0.6,17.9-2.5C728.3,432,743.5,402.3,734.5,374.6z"/>
</g>
</svg>
