<?xml version="1.0" encoding="utf-8"?>
<!-- Generator: Adobe Illustrator 24.3.0, SVG Export Plug-In . SVG Version: 6.00 Build 0)  -->
<svg version="1.1" id="Layer_1" xmlns="http://www.w3.org/2000/svg" xmlns:xlink="http://www.w3.org/1999/xlink" x="0px" y="0px"
	 viewBox="0 0 1024 768" style="enable-background:new 0 0 1024 768;" xml:space="preserve">
<style type="text/css">
	.st0{fill-rule:evenodd;clip-rule:evenodd;fill:url(#SVGID_1_);}
	.st1{fill-rule:evenodd;clip-rule:evenodd;fill:url(#SVGID_2_);}
	.st2{fill-rule:evenodd;clip-rule:evenodd;fill:url(#SVGID_3_);}
	.st3{fill-rule:evenodd;clip-rule:evenodd;fill:url(#SVGID_4_);}
	.st4{fill-rule:evenodd;clip-rule:evenodd;fill:#EDFAFF;}
	.st5{fill-rule:evenodd;clip-rule:evenodd;fill:url(#SVGID_5_);}
	.st6{opacity:0.5;fill-rule:evenodd;clip-rule:evenodd;fill:url(#SVGID_6_);}
</style>
<g>
	
		<radialGradient id="SVGID_1_" cx="738.6159" cy="156.1675" r="114.6515" gradientTransform="matrix(0.9514 -0.3078 0.3078 0.9514 -103.6334 419.3628)" gradientUnits="userSpaceOnUse">
		<stop  offset="0.61" style="stop-color:#EDFBFF"/>
		<stop  offset="0.9832" style="stop-color:#8FBEEC"/>
	</radialGradient>
	<circle class="st0" cx="664.5" cy="392.1" r="52.8"/>
	
		<radialGradient id="SVGID_2_" cx="328.1835" cy="837.2943" r="151.3221" gradientTransform="matrix(0.9571 0.2899 -0.2899 0.9571 326.73 -560.6517)" gradientUnits="userSpaceOnUse">
		<stop  offset="0.61" style="stop-color:#EDFBFF"/>
		<stop  offset="0.9832" style="stop-color:#8FBEEC"/>
	</radialGradient>
	<circle class="st1" cx="378.1" cy="404.7" r="69.7"/>
	
		<radialGradient id="SVGID_3_" cx="598.7565" cy="336.821" r="135.6517" fx="589.7722" fy="337.0318" gradientTransform="matrix(1.042 -5.625512e-02 5.625510e-02 1.042 -86.3405 50.5985)" gradientUnits="userSpaceOnUse">
		<stop  offset="0.6907" style="stop-color:#EDFBFF"/>
		<stop  offset="0.8631" style="stop-color:#8FBEEC"/>
	</radialGradient>
	<circle class="st2" cx="560.8" cy="433.9" r="64.3"/>
	
		<radialGradient id="SVGID_4_" cx="457.0684" cy="527.9016" r="139.1024" fx="443.4959" fy="535.6796" gradientTransform="matrix(0.9845 0.1756 -0.1756 0.9845 118.4883 -218.1857)" gradientUnits="userSpaceOnUse">
		<stop  offset="0.6618" style="stop-color:#EDFBFF"/>
		<stop  offset="0.8494" style="stop-color:#8FBEEC"/>
		<stop  offset="0.8523" style="stop-color:#90BFEC"/>
		<stop  offset="0.9488" style="stop-color:#B5D6F9"/>
		<stop  offset="1" style="stop-color:#C3DFFE"/>
	</radialGradient>
	<circle class="st3" cx="464.9" cy="446.8" r="64"/>
	<circle class="st4" cx="451.8" cy="365.6" r="58.8"/>
	<circle class="st4" cx="552.6" cy="334.9" r="83.9"/>
	
		<radialGradient id="SVGID_5_" cx="1092.5493" cy="-362.9972" r="138.6494" gradientTransform="matrix(0.93 -0.3676 0.3676 0.93 -309.5023 1112.2759)" gradientUnits="userSpaceOnUse">
		<stop  offset="0.61" style="stop-color:#EDFBFF"/>
		<stop  offset="0.9832" style="stop-color:#8FBEEC"/>
	</radialGradient>
	<circle class="st5" cx="597.9" cy="433.9" r="63.8"/>
	<linearGradient id="SVGID_6_" gradientUnits="userSpaceOnUse" x1="512.83" y1="250.9957" x2="512.83" y2="510.8434">
		<stop  offset="0" style="stop-color:#EDFBFF"/>
		<stop  offset="0.8631" style="stop-color:#8FBEEC"/>
	</linearGradient>
	<path class="st6" d="M714.7,375.9c-9-27.7-38.7-42.9-66.5-34c-4.6,1.5-8.8,3.6-12.7,6.1c0.7-4.3,1-8.6,1-13.1
		c0-46.3-37.6-83.9-83.9-83.9c-37.9,0-69.9,25.1-80.3,59.5c-6.4-2.4-13.3-3.7-20.6-3.7c-22.7,0-42.3,12.8-52.1,31.6
		c-0.4-0.1-0.9-0.3-1.3-0.4c-36.8-11.2-75.7,9.7-86.9,46.5s9.7,75.7,46.5,86.9c16.1,4.9,32.6,3.6,47-2.4
		c7.6,20.6,25.6,36.7,48.8,40.8c25.9,4.6,51-7.1,64.7-27.7c12.2,10.7,28.4,16.9,45.9,15.9c5.5-0.3,10.8-1.3,15.9-2.9
		c13.1,3.8,27.6,3.5,41.2-1.9c21.5-8.5,35.8-27.3,39.4-48.5c6.5,0.5,13.3-0.3,19.9-2.4C708.5,433.4,723.7,403.6,714.7,375.9z"/>
</g>
</svg>
