<?xml version="1.0" encoding="utf-8"?>
<!-- Generator: Adobe Illustrator 24.3.0, SVG Export Plug-In . SVG Version: 6.00 Build 0)  -->
<svg version="1.1" id="Layer_1" xmlns="http://www.w3.org/2000/svg" xmlns:xlink="http://www.w3.org/1999/xlink" x="0px" y="0px"
	 viewBox="0 0 1024 768" style="enable-background:new 0 0 1024 768;" xml:space="preserve">
<style type="text/css">
	.st0{fill-rule:evenodd;clip-rule:evenodd;fill:url(#SVGID_1_);}
	.st1{fill-rule:evenodd;clip-rule:evenodd;fill:url(#SVGID_2_);}
	.st2{fill-rule:evenodd;clip-rule:evenodd;fill:url(#SVGID_3_);}
	.st3{fill-rule:evenodd;clip-rule:evenodd;fill:url(#SVGID_4_);}
	.st4{fill-rule:evenodd;clip-rule:evenodd;fill:#EDFAFF;}
	.st5{fill-rule:evenodd;clip-rule:evenodd;fill:url(#SVGID_5_);}
	.st6{opacity:0.5;fill-rule:evenodd;clip-rule:evenodd;fill:url(#SVGID_6_);}
</style>
<g>
	
		<radialGradient id="SVGID_1_" cx="665.1514" cy="186.646" r="138.5073" gradientTransform="matrix(0.8821 -0.4711 0.4711 0.8821 -67.0505 466.4943)" gradientUnits="userSpaceOnUse">
		<stop  offset="0.61" style="stop-color:#EDFBFF"/>
		<stop  offset="0.9832" style="stop-color:#8FBEEC"/>
	</radialGradient>
	<circle class="st0" cx="639.1" cy="375.4" r="63.8"/>
	<radialGradient id="SVGID_2_" cx="374.9875" cy="321.1342" r="138.5073" gradientUnits="userSpaceOnUse">
		<stop  offset="0.61" style="stop-color:#EDFBFF"/>
		<stop  offset="0.9832" style="stop-color:#8FBEEC"/>
	</radialGradient>
	<circle class="st1" cx="375.7" cy="386.8" r="63.8"/>
	
		<radialGradient id="SVGID_3_" cx="614.8057" cy="281.5369" r="183.7555" fx="602.6354" fy="281.8224" gradientTransform="matrix(1.042 -5.625512e-02 5.625510e-02 1.042 -86.3405 50.5985)" gradientUnits="userSpaceOnUse">
		<stop  offset="0.6907" style="stop-color:#EDFBFF"/>
		<stop  offset="0.8631" style="stop-color:#8FBEEC"/>
	</radialGradient>
	<circle class="st2" cx="575.9" cy="398.8" r="87"/>
	
		<radialGradient id="SVGID_4_" cx="428.4423" cy="514.5543" r="133.9561" fx="415.3719" fy="522.0445" gradientTransform="matrix(0.9845 0.1756 -0.1756 0.9845 118.4883 -218.1857)" gradientUnits="userSpaceOnUse">
		<stop  offset="0.6618" style="stop-color:#EDFBFF"/>
		<stop  offset="0.8494" style="stop-color:#8FBEEC"/>
		<stop  offset="0.8523" style="stop-color:#90BFEC"/>
		<stop  offset="0.9488" style="stop-color:#B5D6F9"/>
		<stop  offset="1" style="stop-color:#C3DFFE"/>
	</radialGradient>
	<circle class="st3" cx="439.5" cy="426.2" r="61.7"/>
	<circle class="st4" cx="462.1" cy="337.7" r="75.5"/>
	<circle class="st4" cx="568.4" cy="315.6" r="30.7"/>
	
		<radialGradient id="SVGID_5_" cx="399.0612" cy="754.7272" r="97.0517" fx="389.5916" fy="760.1539" gradientTransform="matrix(0.9564 -0.292 0.292 0.9564 -119.1117 -194.268)" gradientUnits="userSpaceOnUse">
		<stop  offset="0.6618" style="stop-color:#EDFBFF"/>
		<stop  offset="0.8494" style="stop-color:#8FBEEC"/>
		<stop  offset="0.8523" style="stop-color:#90BFEC"/>
		<stop  offset="0.9488" style="stop-color:#B5D6F9"/>
		<stop  offset="1" style="stop-color:#C3DFFE"/>
	</radialGradient>
	<circle class="st5" cx="496.8" cy="454.9" r="44.7"/>
	<linearGradient id="SVGID_6_" gradientUnits="userSpaceOnUse" x1="507.4272" y1="262.2094" x2="507.4272" y2="499.5875">
		<stop  offset="0" style="stop-color:#EDFBFF"/>
		<stop  offset="0.8631" style="stop-color:#8FBEEC"/>
	</linearGradient>
	<path class="st6" d="M695.4,345.3c-16.4-30.8-54.5-42.6-85.4-26.7c-3.5-1.5-7.2-2.8-10.9-3.8c-0.4-16.6-14-30-30.7-30
		c-17,0-30.7,13.8-30.7,30.7c0,1.6,0.1,3.3,0.4,4.8c-0.7,0.4-1.4,0.7-2.2,1.1c-7.4-33.9-37.6-59.3-73.8-59.3
		c-37.1,0-67.9,26.7-74.3,62c-3.9-0.8-8-1.2-12.1-1.2c-35.2,0-63.8,28.5-63.8,63.8c0,35.2,28.5,63.8,63.8,63.8
		c2.3,0,4.7-0.1,6.9-0.4c7.9,18.6,24.6,33,46,36.8c11.8,2.1,23.4,0.7,33.8-3.5c11.2,13.4,29.7,19.6,47.4,14.2
		c11.7-3.6,20.8-11.5,26.2-21.4c13.3,6.8,28.5,10.4,44.5,9.5c32.5-1.8,59.8-21.1,73.3-48.3c5.2-1.2,10.3-3.2,15.3-5.8
		C700.2,415,712,376.4,695.4,345.3z"/>
</g>
</svg>
