<?xml version="1.0" encoding="utf-8"?>
<!-- Generator: Adobe Illustrator 24.3.0, SVG Export Plug-In . SVG Version: 6.00 Build 0)  -->
<svg version="1.1" id="Layer_1" xmlns="http://www.w3.org/2000/svg" xmlns:xlink="http://www.w3.org/1999/xlink" x="0px" y="0px"
	 viewBox="0 0 1024 768" style="enable-background:new 0 0 1024 768;" xml:space="preserve">
<style type="text/css">
	.st0{fill-rule:evenodd;clip-rule:evenodd;fill:url(#SVGID_1_);}
	.st1{fill-rule:evenodd;clip-rule:evenodd;fill:url(#SVGID_2_);}
	.st2{fill-rule:evenodd;clip-rule:evenodd;fill:url(#SVGID_3_);}
	.st3{fill-rule:evenodd;clip-rule:evenodd;fill:url(#SVGID_4_);}
	.st4{fill-rule:evenodd;clip-rule:evenodd;fill:#EDFAFF;}
	.st5{fill-rule:evenodd;clip-rule:evenodd;fill:url(#SVGID_5_);}
	.st6{opacity:0.5;fill-rule:evenodd;clip-rule:evenodd;fill:url(#SVGID_6_);}
</style>
<g>
	
		<radialGradient id="SVGID_1_" cx="735.4375" cy="121.034" r="114.6515" gradientTransform="matrix(0.9514 -0.3078 0.3078 0.9514 -103.6334 419.3628)" gradientUnits="userSpaceOnUse">
		<stop  offset="0.61" style="stop-color:#EDFBFF"/>
		<stop  offset="0.9832" style="stop-color:#8FBEEC"/>
	</radialGradient>
	<circle class="st0" cx="650.6" cy="359.7" r="52.8"/>
	
		<radialGradient id="SVGID_2_" cx="330.0569" cy="834.4888" r="133.9556" gradientTransform="matrix(0.9571 0.2899 -0.2899 0.9571 326.73 -560.6517)" gradientUnits="userSpaceOnUse">
		<stop  offset="0.61" style="stop-color:#EDFBFF"/>
		<stop  offset="0.9832" style="stop-color:#8FBEEC"/>
	</radialGradient>
	<circle class="st1" cx="383" cy="394.6" r="61.7"/>
	
		<radialGradient id="SVGID_3_" cx="599.3818" cy="317.6467" r="135.6517" fx="590.3975" fy="317.8575" gradientTransform="matrix(1.042 -5.625512e-02 5.625510e-02 1.042 -86.3405 50.5985)" gradientUnits="userSpaceOnUse">
		<stop  offset="0.6907" style="stop-color:#EDFBFF"/>
		<stop  offset="0.8631" style="stop-color:#8FBEEC"/>
	</radialGradient>
	<circle class="st2" cx="560.4" cy="413.9" r="64.3"/>
	
		<radialGradient id="SVGID_4_" cx="461.4079" cy="495.3574" r="167.6398" fx="445.0509" fy="504.731" gradientTransform="matrix(0.9845 0.1756 -0.1756 0.9845 118.4883 -218.1857)" gradientUnits="userSpaceOnUse">
		<stop  offset="0.6618" style="stop-color:#EDFBFF"/>
		<stop  offset="0.8494" style="stop-color:#8FBEEC"/>
		<stop  offset="0.8523" style="stop-color:#90BFEC"/>
		<stop  offset="0.9488" style="stop-color:#B5D6F9"/>
		<stop  offset="1" style="stop-color:#C3DFFE"/>
	</radialGradient>
	<circle class="st3" cx="472.6" cy="428.9" r="77.2"/>
	<circle class="st4" cx="451.3" cy="345.6" r="58.8"/>
	<circle class="st4" cx="551.3" cy="324.7" r="70"/>
	
		<radialGradient id="SVGID_5_" cx="1067.2334" cy="-248.9677" r="113.5679" gradientTransform="matrix(0.8058 -0.5922 0.5922 0.8058 -118.9757 1201.0746)" gradientUnits="userSpaceOnUse">
		<stop  offset="0.61" style="stop-color:#EDFBFF"/>
		<stop  offset="0.9832" style="stop-color:#8FBEEC"/>
	</radialGradient>
	<circle class="st5" cx="625.9" cy="411.5" r="52.3"/>
	<linearGradient id="SVGID_6_" gradientUnits="userSpaceOnUse" x1="512.3621" y1="254.7237" x2="512.3621" y2="506.0475">
		<stop  offset="0" style="stop-color:#EDFBFF"/>
		<stop  offset="0.8631" style="stop-color:#8FBEEC"/>
	</linearGradient>
	<path class="st6" d="M700.9,343.4c-9-27.7-38.7-42.9-66.5-34c-5,1.6-9.5,3.9-13.6,6.7c-4.2-34.6-33.7-61.4-69.4-61.4
		c-29.4,0-54.5,18.1-64.9,43.7c-9.8-7.3-22-11.7-35.1-11.7c-28.5,0-52.2,20.2-57.6,47.1c-30.3-5.4-60.6,12.6-69.7,42.8
		c-9.9,32.6,8.5,67,41.1,76.9c11.7,3.5,23.6,3.4,34.6,0.3c8.8,25.6,30.9,45.7,59.4,50.8c30.5,5.4,60-7.8,76.7-31.6
		c8.6,3.6,18.1,5.3,28,4.8c16.3-0.9,30.9-7.8,41.7-18.4c16.4,7,36,5.3,51.4-6c15.8-11.6,23.2-30.5,20.9-48.7
		C698.4,392.6,708.6,367.3,700.9,343.4z"/>
</g>
</svg>
