<?xml version="1.0" encoding="utf-8"?>
<!-- Generator: Adobe Illustrator 24.3.0, SVG Export Plug-In . SVG Version: 6.00 Build 0)  -->
<svg version="1.1" id="Layer_1" xmlns="http://www.w3.org/2000/svg" xmlns:xlink="http://www.w3.org/1999/xlink" x="0px" y="0px"
	 viewBox="0 0 1024 768" style="enable-background:new 0 0 1024 768;" xml:space="preserve">
<style type="text/css">
	.st0{fill-rule:evenodd;clip-rule:evenodd;fill:url(#SVGID_1_);}
	.st1{fill-rule:evenodd;clip-rule:evenodd;fill:url(#SVGID_2_);}
	.st2{fill-rule:evenodd;clip-rule:evenodd;fill:url(#SVGID_3_);}
	.st3{fill-rule:evenodd;clip-rule:evenodd;fill:url(#SVGID_4_);}
	.st4{fill-rule:evenodd;clip-rule:evenodd;fill:#EDFAFF;}
	.st5{opacity:0.5;fill-rule:evenodd;clip-rule:evenodd;fill:url(#SVGID_5_);}
</style>
<g>
	
		<radialGradient id="SVGID_1_" cx="710.6934" cy="139.3302" r="138.5073" gradientTransform="matrix(0.9514 -0.3078 0.3078 0.9514 -103.6334 419.3628)" gradientUnits="userSpaceOnUse">
		<stop  offset="0.61" style="stop-color:#EDFBFF"/>
		<stop  offset="0.9832" style="stop-color:#8FBEEC"/>
	</radialGradient>
	<circle class="st0" cx="636.3" cy="395.4" r="63.8"/>
	<radialGradient id="SVGID_2_" cx="379.1432" cy="329.7743" r="138.5073" gradientUnits="userSpaceOnUse">
		<stop  offset="0.61" style="stop-color:#EDFBFF"/>
		<stop  offset="0.9832" style="stop-color:#8FBEEC"/>
	</radialGradient>
	<circle class="st1" cx="379.8" cy="395.4" r="63.8"/>
	
		<radialGradient id="SVGID_3_" cx="619.2601" cy="285.5231" r="170.0202" fx="607.9996" fy="285.7873" gradientTransform="matrix(1.042 -5.625512e-02 5.625510e-02 1.042 -86.3405 50.5985)" gradientUnits="userSpaceOnUse">
		<stop  offset="0.6907" style="stop-color:#EDFBFF"/>
		<stop  offset="0.8631" style="stop-color:#8FBEEC"/>
	</radialGradient>
	<circle class="st2" cx="580.3" cy="396" r="80.5"/>
	
		<radialGradient id="SVGID_4_" cx="475.6189" cy="477.7397" r="167.6398" fx="459.2619" fy="487.1133" gradientTransform="matrix(0.9845 0.1756 -0.1756 0.9845 118.4883 -218.1857)" gradientUnits="userSpaceOnUse">
		<stop  offset="0.6618" style="stop-color:#EDFBFF"/>
		<stop  offset="0.8494" style="stop-color:#8FBEEC"/>
		<stop  offset="0.8523" style="stop-color:#90BFEC"/>
		<stop  offset="0.9488" style="stop-color:#B5D6F9"/>
		<stop  offset="1" style="stop-color:#C3DFFE"/>
	</radialGradient>
	<circle class="st3" cx="489.7" cy="414" r="77.2"/>
	<circle class="st4" cx="464.2" cy="336.6" r="67"/>
	<circle class="st4" cx="543.3" cy="336.6" r="57.3"/>
	<linearGradient id="SVGID_5_" gradientUnits="userSpaceOnUse" x1="508.0931" y1="269.5727" x2="508.0931" y2="491.1983">
		<stop  offset="0" style="stop-color:#EDFBFF"/>
		<stop  offset="0.8631" style="stop-color:#8FBEEC"/>
	</linearGradient>
	<path class="st5" d="M697,375.8c-9.5-29.4-38.3-47.1-67.8-43.7c-9.3-7.1-20.2-12.2-32-14.8c-7.9-22.1-29.1-38-53.9-38
		c-11.8,0-22.8,3.6-31.9,9.7c-12.1-12-28.8-19.4-47.2-19.4c-36.2,0-65.6,28.7-67,64.5c-5.5-1.6-11.3-2.4-17.4-2.4
		c-35.2,0-63.8,28.5-63.8,63.8c0,35.2,28.5,63.8,63.8,63.8c14.9,0,28.6-5.1,39.4-13.7c10.1,22.5,30.8,39.8,56.9,44.5
		c26,4.6,51.2-4.3,68.5-21.8c12,6,25.7,9,40,8.2c17.4-0.9,33.3-7.4,45.9-17.5c8.3,0.8,16.9-0.1,25.3-2.9
		C689.5,445.2,707.8,409.3,697,375.8z"/>
</g>
</svg>
