<?xml version="1.0" encoding="utf-8"?>
<!-- Generator: Adobe Illustrator 24.3.0, SVG Export Plug-In . SVG Version: 6.00 Build 0)  -->
<svg version="1.1" id="Layer_1" xmlns="http://www.w3.org/2000/svg" xmlns:xlink="http://www.w3.org/1999/xlink" x="0px" y="0px"
	 viewBox="0 0 1024 768" style="enable-background:new 0 0 1024 768;" xml:space="preserve">
<style type="text/css">
	.st0{fill-rule:evenodd;clip-rule:evenodd;fill:url(#SVGID_1_);}
	.st1{fill-rule:evenodd;clip-rule:evenodd;fill:url(#SVGID_2_);}
	.st2{fill-rule:evenodd;clip-rule:evenodd;fill:url(#SVGID_3_);}
	.st3{fill-rule:evenodd;clip-rule:evenodd;fill:url(#SVGID_4_);}
	.st4{fill-rule:evenodd;clip-rule:evenodd;fill:#EDFAFF;}
	.st5{opacity:0.5;fill-rule:evenodd;clip-rule:evenodd;fill:url(#SVGID_5_);}
</style>
<g>
	
		<radialGradient id="SVGID_1_" cx="771.3837" cy="27.0262" r="121.7182" gradientTransform="matrix(0.7445 -0.2409 0.2409 0.7445 65.5062 539.499)" gradientUnits="userSpaceOnUse">
		<stop  offset="0.61" style="stop-color:#EDFBFF"/>
		<stop  offset="0.9832" style="stop-color:#8FBEEC"/>
	</radialGradient>
	<circle class="st0" cx="660.7" cy="416.6" r="43.8"/>
	<radialGradient id="SVGID_2_" cx="377.1349" cy="324.2619" r="138.5073" gradientUnits="userSpaceOnUse">
		<stop  offset="0.61" style="stop-color:#EDFBFF"/>
		<stop  offset="0.9832" style="stop-color:#8FBEEC"/>
	</radialGradient>
	<circle class="st1" cx="377.8" cy="389.9" r="63.8"/>
	
		<radialGradient id="SVGID_3_" cx="617.0621" cy="311.019" r="170.0202" fx="605.8015" fy="311.2833" gradientTransform="matrix(1.042 -5.625512e-02 5.625510e-02 1.042 -86.3405 50.5985)" gradientUnits="userSpaceOnUse">
		<stop  offset="0.6907" style="stop-color:#EDFBFF"/>
		<stop  offset="0.8631" style="stop-color:#8FBEEC"/>
	</radialGradient>
	<circle class="st2" cx="579.5" cy="422.7" r="80.5"/>
	
		<radialGradient id="SVGID_4_" cx="334.0334" cy="555.3682" r="167.6398" fx="317.6765" fy="564.7418" gradientTransform="matrix(0.8969 0.4423 -0.4423 0.8969 438.0936 -288.1899)" gradientUnits="userSpaceOnUse">
		<stop  offset="0.6618" style="stop-color:#EDFBFF"/>
		<stop  offset="0.8494" style="stop-color:#8FBEEC"/>
		<stop  offset="0.8523" style="stop-color:#90BFEC"/>
		<stop  offset="0.9488" style="stop-color:#B5D6F9"/>
		<stop  offset="1" style="stop-color:#C3DFFE"/>
	</radialGradient>
	<circle class="st3" cx="457.7" cy="429.3" r="77.2"/>
	<circle class="st4" cx="562" cy="316.7" r="67"/>
	<circle class="st4" cx="476.1" cy="349.2" r="57.3"/>
	<linearGradient id="SVGID_5_" gradientUnits="userSpaceOnUse" x1="509.2998" y1="249.6921" x2="509.2998" y2="506.4729">
		<stop  offset="0" style="stop-color:#EDFBFF"/>
		<stop  offset="0.8631" style="stop-color:#8FBEEC"/>
	</linearGradient>
	<path class="st5" d="M702.4,403.1c-7.5-23-32.2-35.7-55.2-28.2c-0.8,0.3-1.5,0.5-2.3,0.8c-6.9-9.6-15.8-17.5-26.1-23.3
		c6.5-10.3,10.3-22.6,10.3-35.7c0-37-30-67-67-67c-29.9,0-55.3,19.6-63.9,46.7c-6.8-2.8-14.2-4.4-22-4.4c-29,0-53,21.6-56.8,49.6
		c-11.2-9.6-25.6-15.4-41.5-15.4c-35.2,0-63.8,28.5-63.8,63.8c0,35.2,28.5,63.8,63.8,63.8c2.2,0,4.4-0.1,6.5-0.3
		c6.2,19,19.8,35.6,39.2,45.2c33.7,16.6,73.7,6.4,95.6-22.5c15.7,17.8,39.1,28.5,64.7,27.1c29.7-1.6,54.7-19.1,67.3-43.7
		c7.4,1.6,15.3,1.4,23-1.1C697.2,450.9,709.8,426.2,702.4,403.1z"/>
</g>
</svg>
