<svg width="33" height="32" viewBox="0 0 33 32" fill="none" xmlns="http://www.w3.org/2000/svg">
<rect x="0.5" width="32" height="32" rx="10" fill="#FFBA59"/>
<path d="M15.4155 23.3C14.9088 23.3 14.3955 23.2533 13.8755 23.16C13.3688 23.08 12.9021 22.98 12.4755 22.86C12.0621 22.74 11.7488 22.6267 11.5355 22.52L12.0555 20.34C12.3621 20.4733 12.7821 20.6267 13.3155 20.8C13.8621 20.9733 14.5355 21.06 15.3355 21.06C15.9888 21.06 16.5288 20.9733 16.9555 20.8C17.3821 20.6267 17.6888 20.38 17.8755 20.06C18.0755 19.7267 18.1755 19.3467 18.1755 18.92C18.1755 18.36 18.0288 17.9267 17.7355 17.62C17.4421 17.3 17.0488 17.0733 16.5555 16.94C16.0755 16.8067 15.5355 16.74 14.9355 16.74H13.9955V14.64H15.1355C15.5488 14.64 15.9421 14.5867 16.3155 14.48C16.7021 14.36 17.0155 14.1667 17.2555 13.9C17.4955 13.62 17.6155 13.2333 17.6155 12.74C17.6155 12.34 17.5155 12.02 17.3155 11.78C17.1288 11.5267 16.8821 11.34 16.5755 11.22C16.2688 11.1 15.9421 11.04 15.5955 11.04C14.9955 11.04 14.4621 11.1333 13.9955 11.32C13.5288 11.4933 13.1088 11.7 12.7355 11.94L11.7955 10.02C12.1821 9.76667 12.7088 9.50667 13.3755 9.24C14.0555 8.96 14.8221 8.82 15.6755 8.82C16.7288 8.82 17.5888 8.98667 18.2555 9.32C18.9355 9.65333 19.4355 10.1067 19.7555 10.68C20.0755 11.2533 20.2355 11.9067 20.2355 12.64C20.2355 13.24 20.0688 13.8 19.7355 14.32C19.4021 14.8267 18.9621 15.2133 18.4155 15.48C18.8955 15.6533 19.3155 15.9 19.6755 16.22C20.0488 16.54 20.3355 16.9267 20.5355 17.38C20.7355 17.8333 20.8355 18.36 20.8355 18.96C20.8355 19.7867 20.6421 20.5333 20.2555 21.2C19.8688 21.8533 19.2755 22.3667 18.4755 22.74C17.6888 23.1133 16.6688 23.3 15.4155 23.3Z" fill="#101012"/>
</svg>
