<svg width="16" height="20" viewBox="0 0 16 20" fill="none" xmlns="http://www.w3.org/2000/svg">
<path d="M5 11H11C11.2833 11 11.5208 10.9042 11.7125 10.7125C11.9042 10.5208 12 10.2833 12 10C12 9.71667 11.9042 9.47917 11.7125 9.2875C11.5208 9.09583 11.2833 9 11 9H5C4.71667 9 4.47917 9.09583 4.2875 9.2875C4.09583 9.47917 4 9.71667 4 10C4 10.2833 4.09583 10.5208 4.2875 10.7125C4.47917 10.9042 4.71667 11 5 11ZM5 14H11C11.2833 14 11.5208 13.9042 11.7125 13.7125C11.9042 13.5208 12 13.2833 12 13C12 12.7167 11.9042 12.4792 11.7125 12.2875C11.5208 12.0958 11.2833 12 11 12H5C4.71667 12 4.47917 12.0958 4.2875 12.2875C4.09583 12.4792 4 12.7167 4 13C4 13.2833 4.09583 13.5208 4.2875 13.7125C4.47917 13.9042 4.71667 14 5 14ZM5 17H8C8.28333 17 8.52083 16.9042 8.7125 16.7125C8.90417 16.5208 9 16.2833 9 16C9 15.7167 8.90417 15.4792 8.7125 15.2875C8.52083 15.0958 8.28333 15 8 15H5C4.71667 15 4.47917 15.0958 4.2875 15.2875C4.09583 15.4792 4 15.7167 4 16C4 16.2833 4.09583 16.5208 4.2875 16.7125C4.47917 16.9042 4.71667 17 5 17ZM2 20C1.45 20 0.979167 19.8042 0.5875 19.4125C0.195833 19.0208 0 18.55 0 18V2C0 1.45 0.195833 0.979167 0.5875 0.5875C0.979167 0.195833 1.45 0 2 0H9.175C9.44167 0 9.69583 0.05 9.9375 0.15C10.1792 0.25 10.3917 0.391667 10.575 0.575L15.425 5.425C15.6083 5.60833 15.75 5.82083 15.85 6.0625C15.95 6.30417 16 6.55833 16 6.825V18C16 18.55 15.8042 19.0208 15.4125 19.4125C15.0208 19.8042 14.55 20 14 20H2ZM9 6C9 6.28333 9.09583 6.52083 9.2875 6.7125C9.47917 6.90417 9.71667 7 10 7H14L9 2V6Z" fill="#FFBA59"/>
</svg>
