<svg width="32" height="32" viewBox="0 0 32 32" fill="none" xmlns="http://www.w3.org/2000/svg">
<rect width="32" height="32" rx="10" fill="#FFBA59"/>
<path d="M11.5355 23C11.5221 22.88 11.5155 22.7267 11.5155 22.54C11.5155 22.34 11.5155 22.1867 11.5155 22.08C11.5155 21.2267 11.6955 20.4667 12.0555 19.8C12.4155 19.1333 12.8621 18.52 13.3955 17.96C13.9421 17.4 14.4888 16.8533 15.0355 16.32C15.4755 15.9067 15.8688 15.52 16.2155 15.16C16.5755 14.7867 16.8621 14.42 17.0755 14.06C17.2888 13.7 17.3955 13.3133 17.3955 12.9C17.3955 12.2333 17.2088 11.7667 16.8355 11.5C16.4621 11.22 16.0021 11.08 15.4555 11.08C14.9621 11.08 14.5088 11.1667 14.0955 11.34C13.6955 11.5133 13.3555 11.7133 13.0755 11.94C12.7955 12.1667 12.5955 12.34 12.4755 12.46L11.1755 10.64C11.5088 10.32 11.8955 10.0267 12.3355 9.76C12.7888 9.48 13.2821 9.25333 13.8155 9.08C14.3621 8.90667 14.9355 8.82 15.5355 8.82C17.1088 8.82 18.2555 9.17333 18.9755 9.88C19.7088 10.5733 20.0755 11.5267 20.0755 12.74C20.0755 13.4067 19.9088 14.0467 19.5755 14.66C19.2421 15.26 18.8155 15.8333 18.2955 16.38C17.7888 16.9133 17.2688 17.4333 16.7355 17.94C16.4421 18.22 16.1221 18.54 15.7755 18.9C15.4288 19.26 15.1221 19.6133 14.8555 19.96C14.6021 20.2933 14.4555 20.5733 14.4155 20.8H20.4955V23H11.5355Z" fill="#101012"/>
</svg>
