<svg width="32" height="32" viewBox="0 0 32 32" fill="none" xmlns="http://www.w3.org/2000/svg">
<rect width="32" height="32" rx="10" fill="#FFBA59"/>
<path d="M16.9155 23V19.76H10.8555V17.88C11.1355 17.28 11.4955 16.6067 11.9355 15.86C12.3755 15.1133 12.8688 14.34 13.4155 13.54C13.9621 12.74 14.5355 11.96 15.1355 11.2C15.7488 10.44 16.3621 9.75333 16.9755 9.14H19.4555V17.62H20.9955V19.76H19.4555V23H16.9155ZM13.3755 17.62H16.9155V12.3C16.6088 12.66 16.2888 13.0533 15.9555 13.48C15.6355 13.9067 15.3155 14.3533 14.9955 14.82C14.6755 15.2867 14.3755 15.7533 14.0955 16.22C13.8288 16.6867 13.5888 17.1533 13.3755 17.62Z" fill="#101012"/>
</svg>
