<svg width="10" height="20" viewBox="0 0 10 20" fill="none" xmlns="http://www.w3.org/2000/svg">
<path d="M3.11321 11.8828H0.943396C0.597484 11.8828 0.330189 11.7259 0.141509 11.4121C-0.0471698 11.0983 -0.0471698 10.7845 0.141509 10.4707L5.99057 0.256276C6.11635 0.0366109 6.29717 -0.041841 6.53302 0.0209205C6.76887 0.083682 6.88679 0.240586 6.88679 0.491632V8.11715H9.0566C9.40252 8.11715 9.66981 8.27406 9.85849 8.58786C10.0472 8.90167 10.0472 9.21548 9.85849 9.52929L4.00943 19.7437C3.88365 19.9634 3.70283 20.0418 3.46698 19.9791C3.23113 19.9163 3.11321 19.7594 3.11321 19.5084V11.8828Z" fill="black" fill-opacity="0.85"/>
</svg>
