<svg width="28" height="28" viewBox="0 0 28 28" fill="none" xmlns="http://www.w3.org/2000/svg">
<path opacity="0.85" d="M1.55556 23.3333H26.4444C27.3 23.3333 28 22.6333 28 21.7778C28 20.9222 27.3 20.2222 26.4444 20.2222H1.55556C0.7 20.2222 0 20.9222 0 21.7778C0 22.6333 0.7 23.3333 1.55556 23.3333ZM1.55556 15.5556H26.4444C27.3 15.5556 28 14.8556 28 14C28 13.1444 27.3 12.4444 26.4444 12.4444H1.55556C0.7 12.4444 0 13.1444 0 14C0 14.8556 0.7 15.5556 1.55556 15.5556ZM0 6.22222C0 7.07778 0.7 7.77778 1.55556 7.77778H26.4444C27.3 7.77778 28 7.07778 28 6.22222C28 5.36667 27.3 4.66667 26.4444 4.66667H1.55556C0.7 4.66667 0 5.36667 0 6.22222Z" fill="#101012"/>
</svg>
