<svg width="28" height="28" viewBox="0 0 28 28" fill="none" xmlns="http://www.w3.org/2000/svg">
<path d="M13.5363 27C13.1881 27 12.8423 26.9087 12.537 26.7329L9.35642 24.8499C8.88136 24.5842 9.11317 24.4902 9.26985 24.4361C9.90325 24.2143 10.0318 24.1642 10.7079 23.7803C10.779 23.7397 10.872 23.754 10.9447 23.797L13.3882 25.2469C13.4764 25.2946 13.6016 25.2946 13.6834 25.2469L23.2107 19.7476C23.299 19.6975 23.3562 19.5949 23.3562 19.49V8.49605C23.3562 8.38634 23.299 8.28857 23.2088 8.23372L13.6853 2.73912C13.5971 2.68666 13.4802 2.68666 13.392 2.73912L3.87041 8.23372C3.77811 8.28618 3.71945 8.38873 3.71945 8.49366V19.4876C3.71945 19.5926 3.77668 19.6927 3.8673 19.7428L6.47628 21.25C7.89286 21.9583 8.75855 21.1236 8.75855 20.2841V9.43327C8.75855 9.27826 8.88017 9.15902 9.03518 9.15902H10.2419C10.3921 9.15902 10.5161 9.27826 10.5161 9.43327V20.2889C10.5161 22.1777 9.48591 23.2628 7.69492 23.2628C7.14403 23.2628 6.70999 23.2628 5.49851 22.6666L2.99923 21.2261C2.38157 20.8684 2 20.2007 2 19.4876V8.49366C2 7.77822 2.38157 7.11047 2.99923 6.75752L12.5361 1.25577C13.1394 0.914743 13.9407 0.914743 14.5393 1.25577L24.0642 6.75991C24.6795 7.11524 25.0635 7.7806 25.0635 8.49605V19.49C25.0635 20.2031 24.6795 20.8684 24.0642 21.2261L14.5393 26.7279C14.2341 26.9044 13.8883 26.995 13.5353 26.995" fill="#689F63"/>
<path d="M16.4791 19.4246C12.3104 19.4246 11.4364 17.5111 11.4364 15.9061C11.4364 15.7535 11.5595 15.6318 11.7123 15.6318H12.9429C13.0788 15.6318 13.1933 15.7308 13.2148 15.8651C13.4008 17.119 13.954 17.7515 16.4748 17.7515C18.4828 17.7515 19.3366 17.2979 19.3366 16.2331C19.3366 15.6202 19.0933 15.1647 15.974 14.8594C13.365 14.6018 11.7529 14.0271 11.7529 11.9404C11.7529 10.0182 13.3745 8.87354 16.0908 8.87354C19.141 8.87354 20.653 9.93239 20.8438 12.2075C20.8509 12.2862 20.8223 12.3625 20.7698 12.4197C20.7174 12.4746 20.6434 12.508 20.5671 12.508H19.3294C19.2006 12.508 19.0885 12.4174 19.0623 12.2933C18.7642 10.9745 18.044 10.5524 16.0861 10.5524C13.8944 10.5524 13.6392 11.3156 13.6392 11.8879C13.6392 12.5819 13.9397 12.7846 16.8969 13.1757C19.8254 13.5644 21.2158 14.113 21.2158 16.171C21.2158 18.2458 19.4844 19.4358 16.4652 19.4358L16.4791 19.4246Z" fill="#689F63"/>
</svg>
