<svg width="28" height="28" viewBox="0 0 28 28" fill="none" xmlns="http://www.w3.org/2000/svg">
<g clip-path="url(#clip0_4233_718)">
<path d="M4.95833 2.25684e-06H23.0417C23.693 -0.000627348 24.338 0.130483 24.9399 0.385828C25.5417 0.641174 26.0886 1.01574 26.5491 1.4881C27.0097 1.96045 27.3749 2.52132 27.6238 3.1386C27.8728 3.75588 28.0006 4.41746 28 5.08547V22.9145C28.0006 23.5825 27.8728 24.2441 27.6238 24.8614C27.3749 25.4787 27.0097 26.0395 26.5491 26.5119C26.0886 26.9843 25.5417 27.3588 24.9399 27.6142C24.338 27.8695 23.693 28.0006 23.0417 28H4.95833C4.30702 28.0006 3.66199 27.8695 3.06014 27.6142C2.45829 27.3588 1.91144 26.9843 1.4509 26.5119C0.990349 26.0395 0.625145 25.4787 0.376183 24.8614C0.12722 24.2441 -0.000611664 23.5825 2.20042e-06 22.9145V5.08547C-0.000611664 4.41746 0.12722 3.75588 0.376183 3.1386C0.625145 2.52132 0.990349 1.96045 1.4509 1.4881C1.91144 1.01574 2.45829 0.641174 3.06014 0.385828C3.66199 0.130483 4.30702 -0.000627348 4.95833 2.25684e-06Z" fill="#777BB3"/>
<path d="M6.60523 15.636C7.28604 15.636 7.79429 15.5104 8.11588 15.2629C8.43402 15.0179 8.65375 14.5935 8.76893 14.0016C8.87631 13.4482 8.8354 13.0619 8.64738 12.8534C8.45513 12.6404 8.03947 12.5324 7.41199 12.5324H6.32399L5.72083 15.636H6.60523ZM3.04668 19.459C2.99618 19.459 2.94821 19.4364 2.91611 19.3974C2.88394 19.3584 2.87091 19.307 2.88055 19.2574L4.47906 11.0329C4.49452 10.9534 4.56421 10.896 4.64524 10.896H8.09043C9.17318 10.896 9.97909 11.19 10.4856 11.7699C10.9949 12.3528 11.1522 13.1677 10.953 14.1918C10.872 14.6091 10.7326 14.9966 10.5388 15.3435C10.3447 15.6908 10.0883 16.0122 9.7764 16.2988C9.40307 16.6482 8.98053 16.9016 8.52166 17.0507C8.07006 17.1978 7.49009 17.2724 6.79788 17.2724H5.40285L5.00447 19.322C4.98901 19.4015 4.91937 19.459 4.83834 19.459H3.04668Z" fill="black"/>
<path d="M6.46352 12.7018H7.41197C8.1693 12.7018 8.43237 12.868 8.52175 12.967C8.67005 13.1315 8.69803 13.4782 8.60273 13.9696C8.49563 14.5198 8.29711 14.9099 8.0126 15.1289C7.72131 15.3532 7.24777 15.4668 6.60521 15.4668H5.92615L6.46352 12.7018ZM8.09041 10.7268H4.64517C4.48311 10.7268 4.34379 10.8417 4.31286 11.0008L2.71436 19.2253C2.69506 19.3246 2.72113 19.4272 2.7854 19.5052C2.84973 19.5833 2.94555 19.6284 3.04667 19.6284H4.83827C5.00039 19.6284 5.13971 19.5135 5.17063 19.3545L5.54238 17.4418H6.79786C7.50784 17.4418 8.10554 17.3644 8.57417 17.2118C9.05613 17.0552 9.49955 16.7897 9.89201 16.4227C10.2166 16.124 10.4839 15.7889 10.6865 15.4263C10.8892 15.0636 11.0347 14.6592 11.1192 14.2243C11.3288 13.1463 11.1585 12.283 10.6131 11.6587C10.073 11.0403 9.22417 10.7268 8.09041 10.7268ZM5.51541 15.8054H6.60521C7.32756 15.8054 7.8656 15.6693 8.21913 15.3972C8.57271 15.125 8.81117 14.6707 8.93509 14.034C9.05365 13.4228 8.99965 12.9915 8.77308 12.7402C8.54624 12.4889 8.09261 12.3632 7.41197 12.3632H6.18443L5.51541 15.8054ZM8.09041 11.0654C9.12683 11.0654 9.88292 11.3374 10.3582 11.8814C10.8333 12.4254 10.9764 13.1848 10.7868 14.1597C10.7088 14.5613 10.5768 14.9285 10.391 15.2611C10.205 15.594 9.96203 15.8984 9.66183 16.1744C9.30408 16.5092 8.90665 16.7477 8.46933 16.8898C8.03201 17.0323 7.475 17.1032 6.79786 17.1032H5.26323L4.83827 19.2898H3.04667L4.64517 11.0654H8.09041Z" fill="white"/>
<path d="M15.0609 17.2725C15.0104 17.2725 14.9625 17.2499 14.9304 17.2108C14.8981 17.1718 14.8851 17.1206 14.8948 17.0709L15.6019 13.4319C15.6691 13.0858 15.6525 12.8374 15.5552 12.7324C15.4956 12.6683 15.3166 12.5607 14.7874 12.5607H13.5063L12.6173 17.1355C12.6018 17.215 12.5322 17.2725 12.4511 17.2725H10.6736C10.6231 17.2725 10.5752 17.2499 10.543 17.2108C10.5108 17.1718 10.4978 17.1205 10.5074 17.0709L12.106 8.84639C12.1214 8.76688 12.1911 8.70944 12.2721 8.70944H14.0496C14.1002 8.70944 14.1481 8.73201 14.1803 8.771C14.2124 8.81005 14.2255 8.86134 14.2158 8.911L13.8301 10.896H15.2082C16.258 10.896 16.9699 11.0811 17.3846 11.4619C17.8072 11.8504 17.9391 12.4715 17.7766 13.3082L17.0328 17.1355C17.0174 17.215 16.9477 17.2725 16.8667 17.2725H15.0609Z" fill="black"/>
<path d="M14.0496 8.5403H12.2721C12.11 8.5403 11.9707 8.65519 11.9398 8.81426L10.3412 17.0388C10.322 17.138 10.348 17.2407 10.4123 17.3187C10.4767 17.3968 10.5725 17.4419 10.6736 17.4419H12.4511C12.6132 17.4419 12.7526 17.327 12.7835 17.1679L13.6459 12.7301H14.7874C15.3157 12.7301 15.4266 12.843 15.431 12.8478C15.4631 12.8823 15.5052 13.042 15.4357 13.3998L14.7286 17.0388C14.7093 17.138 14.7353 17.2407 14.7997 17.3187C14.864 17.3968 14.9598 17.4419 15.0609 17.4419H16.8666C17.0287 17.4419 17.1681 17.327 17.199 17.1679L17.9427 13.3407C18.1172 12.4423 17.9679 11.7683 17.4991 11.3375C17.0517 10.9266 16.3024 10.7269 15.2081 10.7269H14.0353L14.382 8.94348C14.4012 8.84422 14.3752 8.74152 14.3109 8.66354C14.2466 8.5855 14.1507 8.5403 14.0496 8.5403ZM14.0496 8.87887L13.6247 11.0655H15.2081C16.2045 11.0655 16.8917 11.2394 17.27 11.5868C17.6482 11.9344 17.7615 12.4976 17.6104 13.2761L16.8666 17.1033H15.0609L15.768 13.4644C15.8485 13.0504 15.8189 12.768 15.6792 12.6175C15.5394 12.4669 15.2421 12.3915 14.7874 12.3915H13.3667L12.4511 17.1033H10.6736L12.2721 8.87887H14.0496Z" fill="white"/>
<path d="M20.589 15.636C21.2699 15.636 21.7781 15.5104 22.0997 15.2629C22.4178 15.018 22.6376 14.5936 22.7528 14.0016C22.8602 13.4482 22.8193 13.0619 22.6312 12.8534C22.4389 12.6404 22.0233 12.5324 21.3958 12.5324H20.3078L19.7046 15.636H20.589ZM17.0306 19.459C16.9801 19.459 16.9321 19.4364 16.9 19.3974C16.8678 19.3584 16.8547 19.307 16.8644 19.2574L18.4629 11.0329C18.4784 10.9534 18.548 10.896 18.6291 10.896H22.0742C23.1571 10.896 23.9629 11.19 24.4695 11.7699C24.9788 12.3528 25.136 13.1677 24.9369 14.1918C24.8558 14.6091 24.7165 14.9966 24.5226 15.3435C24.3286 15.6908 24.0721 16.0122 23.7602 16.2988C23.3869 16.6482 22.9644 16.9016 22.5055 17.0507C22.0539 17.1978 21.4739 17.2724 20.7817 17.2724H19.3866L18.9884 19.322C18.9729 19.4015 18.9032 19.459 18.8222 19.459H17.0306Z" fill="black"/>
<path d="M20.4474 12.7018H21.3959C22.1532 12.7018 22.4163 12.868 22.5056 12.967C22.654 13.1315 22.682 13.4782 22.5866 13.9695C22.4795 14.5198 22.2809 14.9099 21.9965 15.1289C21.7052 15.3532 21.2317 15.4668 20.5891 15.4668H19.9101L20.4474 12.7018ZM22.0743 10.7268H18.6291C18.4671 10.7268 18.3277 10.8417 18.2968 11.0008L16.6983 19.2253C16.679 19.3246 16.7051 19.4272 16.7693 19.5052C16.8337 19.5833 16.9295 19.6284 17.0306 19.6284H18.8222C18.9843 19.6284 19.1237 19.5135 19.1546 19.3545L19.5263 17.4418H20.7818C21.4917 17.4418 22.0894 17.3644 22.5581 17.2118C23.04 17.0552 23.4835 16.7896 23.876 16.4225C24.2006 16.124 24.4678 15.7889 24.6704 15.4263C24.873 15.0636 25.0186 14.6592 25.1031 14.2243C25.3127 13.1462 25.1424 12.283 24.597 11.6586C24.0569 11.0403 23.2081 10.7268 22.0743 10.7268ZM19.4994 15.8054H20.5891C21.3114 15.8054 21.8495 15.6693 22.203 15.3972C22.5567 15.125 22.7951 14.6707 22.919 14.034C23.0376 13.4228 22.9836 12.9915 22.757 12.7402C22.5301 12.4889 22.0765 12.3632 21.3959 12.3632H20.1683L19.4994 15.8054ZM22.0743 11.0654C23.1107 11.0654 23.8668 11.3374 24.3421 11.8814C24.8173 12.4254 24.9603 13.1848 24.7707 14.1597C24.6927 14.5613 24.5607 14.9285 24.3749 15.2611C24.1888 15.594 23.9459 15.8984 23.6457 16.1744C23.288 16.5092 22.8905 16.7477 22.4532 16.8898C22.0159 17.0323 21.4589 17.1032 20.7818 17.1032H19.2471L18.8222 19.2898H17.0306L18.6291 11.0654H22.0743Z" fill="white"/>
</g>
<defs>
<clipPath id="clip0_4233_718">
<rect width="28" height="28" rx="14" fill="white"/>
</clipPath>
</defs>
</svg>
