<svg width="28" height="28" viewBox="0 0 28 28" fill="none" xmlns="http://www.w3.org/2000/svg">
<path d="M13.976 2C7.85133 2 8.2338 4.65602 8.2338 4.65602L8.24063 7.40763H14.0852V8.2338H5.91917C5.91917 8.2338 2 7.78933 2 13.9692C2 20.149 5.42074 19.9298 5.42074 19.9298H7.46225V17.0622C7.46225 17.0622 7.35221 13.6414 10.8284 13.6414C14.3045 13.6414 16.6252 13.6414 16.6252 13.6414C16.6252 13.6414 19.8821 13.6941 19.8821 10.4938C19.8821 7.29353 19.8821 5.20225 19.8821 5.20225C19.8821 5.20225 20.3765 2 13.976 2ZM10.7533 3.85034C11.3348 3.85034 11.8047 4.32033 11.8047 4.90182C11.8047 5.48332 11.3348 5.95331 10.7533 5.95331C10.1718 5.95331 9.70178 5.48332 9.70178 4.90182C9.70178 4.32033 10.1718 3.85034 10.7533 3.85034Z" fill="url(#paint0_linear_4233_752)"/>
<path d="M14.1498 26.0001C20.2745 26.0001 19.892 23.3441 19.892 23.3441L19.8852 20.5925H14.0406V19.7664H22.2067C22.2067 19.7664 26.1258 20.2108 26.1258 14.031C26.1258 7.85115 22.7051 8.0703 22.7051 8.0703H20.6636V10.938C20.6636 10.938 20.7736 14.3587 17.2975 14.3587C13.8213 14.3587 11.5007 14.3587 11.5007 14.3587C11.5007 14.3587 8.24378 14.3061 8.24378 17.5063C8.24378 20.7066 8.24378 22.7979 8.24378 22.7979C8.24378 22.7979 7.7493 26.0001 14.1498 26.0001ZM17.3726 24.1498C16.7911 24.1498 16.3211 23.6798 16.3211 23.0983C16.3211 22.5168 16.7911 22.0468 17.3726 22.0468C17.9541 22.0468 18.4241 22.5168 18.4241 23.0983C18.4241 23.6798 17.9541 24.1498 17.3726 24.1498Z" fill="url(#paint1_linear_4233_752)"/>
<defs>
<linearGradient id="paint0_linear_4233_752" x1="4.31855" y1="4.09784" x2="16.2481" y2="16.0673" gradientUnits="userSpaceOnUse">
<stop stop-color="#387EB8"/>
<stop offset="1" stop-color="#366994"/>
</linearGradient>
<linearGradient id="paint1_linear_4233_752" x1="11.657" y1="11.7121" x2="24.4694" y2="23.9871" gradientUnits="userSpaceOnUse">
<stop stop-color="#FFE052"/>
<stop offset="1" stop-color="#FFC331"/>
</linearGradient>
</defs>
</svg>
